<svg width="825" height="370" viewBox="0 0 825 370" fill="none" xmlns="http://www.w3.org/2000/svg">
<mask id="path-1-outside-1_1_39" maskUnits="userSpaceOnUse" x="3.8147e-05" y="-0.99884" width="825" height="372" fill="black">
<rect fill="white" x="3.8147e-05" y="-0.99884" width="825" height="372"/>
<path d="M275.299 178.767C251.369 264.626 191.19 324.876 140.885 313.339C90.5806 301.802 69.199 222.847 93.1283 136.989C117.058 51.1297 177.236 -9.12018 227.541 2.41666C277.846 13.9535 299.228 92.9083 275.299 178.767Z"/>
<path d="M196.54 186.065C230.561 269.074 218.715 349.663 170.08 366.066C121.444 382.468 54.438 328.473 20.4165 245.464C-13.6049 162.455 -1.75811 81.866 46.8771 65.4635C95.5122 49.0611 162.519 103.056 196.54 186.065Z"/>
<path d="M258.106 238.563H242.08C241.132 234.382 239.474 230.708 237.104 227.543C234.778 224.378 231.935 221.72 228.575 219.571C225.257 217.383 221.574 215.741 217.524 214.647C213.475 213.553 209.253 213.006 204.859 213.006C196.846 213.006 189.587 214.842 183.082 218.516C176.62 222.189 171.472 227.602 167.638 234.753C163.847 241.905 161.951 250.678 161.951 261.073C161.951 271.468 163.847 280.241 167.638 287.392C171.472 294.544 176.62 299.956 183.082 303.63C189.587 307.303 196.846 309.14 204.859 309.14C209.253 309.14 213.475 308.593 217.524 307.498C221.574 306.404 225.257 304.782 228.575 302.633C231.935 300.445 234.778 297.768 237.104 294.602C239.474 291.398 241.132 287.724 242.08 283.582H258.106C256.9 289.717 254.703 295.208 251.515 300.054C248.327 304.9 244.363 309.022 239.625 312.422C234.886 315.783 229.565 318.343 223.663 320.101C217.805 321.86 211.536 322.739 204.859 322.739C193.572 322.739 183.534 320.238 174.746 315.236C165.958 310.234 159.043 303.122 154.003 293.899C148.963 284.676 146.442 273.734 146.442 261.073C146.442 248.411 148.963 237.469 154.003 228.246C159.043 219.024 165.958 211.912 174.746 206.909C183.534 201.907 193.572 199.406 204.859 199.406C211.536 199.406 217.805 200.286 223.663 202.044C229.565 203.803 234.886 206.382 239.625 209.782C244.363 213.143 248.327 217.246 251.515 222.092C254.703 226.898 256.9 232.389 258.106 238.563Z"/>
<path d="M322.257 322.974C313.297 322.974 305.435 321.039 298.671 317.17C291.951 313.302 286.695 307.889 282.904 300.933C279.156 293.977 277.282 285.849 277.282 276.548C277.282 267.169 279.156 258.982 282.904 251.987C286.695 244.992 291.951 239.56 298.671 235.691C305.435 231.822 313.297 229.888 322.257 229.888C331.218 229.888 339.059 231.822 345.779 235.691C352.543 239.56 357.799 244.992 361.546 251.987C365.338 258.982 367.233 267.169 367.233 276.548C367.233 285.849 365.338 293.977 361.546 300.933C357.799 307.889 352.543 313.302 345.779 317.17C339.059 321.039 331.218 322.974 322.257 322.974ZM322.257 310.546C329.064 310.546 334.665 308.964 339.059 305.798C343.453 302.633 346.705 298.471 348.816 293.313C350.927 288.154 351.983 282.566 351.983 276.548C351.983 270.53 350.927 264.922 348.816 259.724C346.705 254.527 343.453 250.326 339.059 247.122C334.665 243.917 329.064 242.315 322.257 242.315C315.451 242.315 309.85 243.917 305.456 247.122C301.062 250.326 297.81 254.527 295.699 259.724C293.588 264.922 292.532 270.53 292.532 276.548C292.532 282.566 293.588 288.154 295.699 293.313C297.81 298.471 301.062 302.633 305.456 305.798C309.85 308.964 315.451 310.546 322.257 310.546Z"/>
<path d="M430.577 356.738C423.21 356.738 416.877 355.878 411.579 354.158C406.28 352.478 401.864 350.251 398.331 347.476C394.842 344.74 392.063 341.81 389.995 338.683L402.144 330.946C403.523 332.587 405.267 334.463 407.378 336.573C409.489 338.722 412.376 340.579 416.037 342.142C419.742 343.744 424.589 344.545 430.577 344.545C438.59 344.545 445.203 342.787 450.415 339.269C455.628 335.752 458.234 330.242 458.234 322.739V304.45H456.942C455.822 306.091 454.228 308.124 452.16 310.546C450.135 312.93 447.206 315.06 443.372 316.936C439.581 318.773 434.454 319.691 427.992 319.691C419.979 319.691 412.785 317.971 406.409 314.533C400.076 311.094 395.057 306.091 391.352 299.526C387.691 292.961 385.86 284.989 385.86 275.61C385.86 266.387 387.648 258.357 391.223 251.518C394.799 244.64 399.775 239.325 406.15 235.574C412.526 231.783 419.893 229.888 428.251 229.888C434.713 229.888 439.839 230.865 443.63 232.819C447.464 234.734 450.394 236.922 452.418 239.384C454.486 241.807 456.08 243.8 457.2 245.363H458.751V231.06H473.485V323.677C473.485 331.415 471.546 337.706 467.669 342.552C463.835 347.437 458.665 351.013 452.16 353.279C445.698 355.585 438.504 356.738 430.577 356.738ZM430.06 307.264C436.177 307.264 441.347 305.994 445.569 303.454C449.791 300.914 453 297.26 455.197 292.492C457.394 287.724 458.493 282.019 458.493 275.376C458.493 268.888 457.416 263.163 455.262 258.2C453.108 253.237 449.92 249.349 445.698 246.535C441.476 243.722 436.263 242.315 430.06 242.315C423.598 242.315 418.213 243.8 413.905 246.77C409.64 249.74 406.43 253.726 404.276 258.728C402.166 263.73 401.11 269.279 401.11 275.376C401.11 281.628 402.187 287.158 404.341 291.965C406.538 296.732 409.769 300.484 414.034 303.219C418.342 305.916 423.684 307.264 430.06 307.264Z"/>
<path d="M516.651 266.935V321.098H501.4V231.06H516.134V245.129H517.426C519.753 240.556 523.285 236.883 528.024 234.108C532.763 231.295 538.88 229.888 546.376 229.888C553.096 229.888 558.977 231.138 564.017 233.639C569.058 236.101 572.978 239.853 575.778 244.894C578.578 249.896 579.978 256.227 579.978 263.886V321.098H564.728V264.824C564.728 257.751 562.703 252.241 558.654 248.294C554.604 244.308 549.047 242.315 541.982 242.315C537.114 242.315 532.763 243.272 528.929 245.187C525.138 247.102 522.143 249.896 519.946 253.57C517.749 257.243 516.651 261.698 516.651 266.935Z"/>
<path d="M607.846 321.098V231.06H623.096V321.098H607.846ZM615.6 216.054C612.628 216.054 610.064 215.136 607.91 213.299C605.8 211.462 604.744 209.254 604.744 206.675C604.744 204.096 605.8 201.888 607.91 200.051C610.064 198.214 612.628 197.296 615.6 197.296C618.573 197.296 621.115 198.214 623.225 200.051C625.379 201.888 626.456 204.096 626.456 206.675C626.456 209.254 625.379 211.462 623.225 213.299C621.115 215.136 618.573 216.054 615.6 216.054Z"/>
<path d="M732.191 231.06L695.487 321.098H679.978L643.274 231.06H659.817L687.215 302.809H688.249L715.648 231.06H732.191Z"/>
<path d="M778.507 323.208C772.218 323.208 766.51 322.133 761.383 319.984C756.257 317.796 752.186 314.65 749.17 310.546C746.154 306.404 744.647 301.402 744.647 295.54C744.647 290.382 745.767 286.2 748.007 282.996C750.247 279.752 753.241 277.212 756.989 275.376C760.737 273.539 764.873 272.171 769.396 271.272C773.963 270.334 778.551 269.592 783.16 269.045C789.191 268.341 794.081 267.814 797.829 267.462C801.62 267.071 804.377 266.426 806.1 265.528C807.866 264.629 808.75 263.066 808.75 260.838V260.369C808.75 254.586 807.005 250.092 803.515 246.887C800.069 243.683 794.835 242.08 787.813 242.08C780.532 242.08 774.824 243.526 770.688 246.418C766.553 249.31 763.645 252.397 761.965 255.68L747.49 250.99C750.075 245.519 753.521 241.26 757.829 238.212C762.18 235.124 766.919 232.975 772.045 231.764C777.215 230.513 782.299 229.888 787.296 229.888C790.484 229.888 794.145 230.239 798.281 230.943C802.46 231.607 806.488 232.995 810.365 235.105C814.285 237.215 817.538 240.4 820.123 244.66C822.708 248.919 824 254.625 824 261.776V321.098H808.75V308.905H807.974C806.94 310.859 805.217 312.95 802.805 315.177C800.392 317.405 797.183 319.3 793.176 320.863C789.17 322.426 784.28 323.208 778.507 323.208ZM780.834 310.781C786.865 310.781 791.948 309.706 796.084 307.557C800.263 305.408 803.408 302.633 805.519 299.233C807.673 295.833 808.75 292.258 808.75 288.506V275.844C808.103 276.548 806.682 277.193 804.485 277.779C802.331 278.326 799.832 278.814 796.989 279.244C794.189 279.635 791.453 279.987 788.782 280.299C786.154 280.573 784.022 280.808 782.385 281.003C778.421 281.472 774.716 282.234 771.27 283.289C767.867 284.305 765.11 285.849 762.999 287.92C760.931 289.952 759.897 292.727 759.897 296.244C759.897 301.05 761.857 304.685 765.777 307.147C769.741 309.569 774.759 310.781 780.834 310.781Z"/>
</mask>
<path d="M275.299 178.767C251.369 264.626 191.19 324.876 140.885 313.339C90.5806 301.802 69.199 222.847 93.1283 136.989C117.058 51.1297 177.236 -9.12018 227.541 2.41666C277.846 13.9535 299.228 92.9083 275.299 178.767Z" fill="#56B6C2"/>
<path d="M196.54 186.065C230.561 269.074 218.715 349.663 170.08 366.066C121.444 382.468 54.438 328.473 20.4165 245.464C-13.6049 162.455 -1.75811 81.866 46.8771 65.4635C95.5122 49.0611 162.519 103.056 196.54 186.065Z" fill="#252931"/>
<path d="M258.106 238.563H242.08C241.132 234.382 239.474 230.708 237.104 227.543C234.778 224.378 231.935 221.72 228.575 219.571C225.257 217.383 221.574 215.741 217.524 214.647C213.475 213.553 209.253 213.006 204.859 213.006C196.846 213.006 189.587 214.842 183.082 218.516C176.62 222.189 171.472 227.602 167.638 234.753C163.847 241.905 161.951 250.678 161.951 261.073C161.951 271.468 163.847 280.241 167.638 287.392C171.472 294.544 176.62 299.956 183.082 303.63C189.587 307.303 196.846 309.14 204.859 309.14C209.253 309.14 213.475 308.593 217.524 307.498C221.574 306.404 225.257 304.782 228.575 302.633C231.935 300.445 234.778 297.768 237.104 294.602C239.474 291.398 241.132 287.724 242.08 283.582H258.106C256.9 289.717 254.703 295.208 251.515 300.054C248.327 304.9 244.363 309.022 239.625 312.422C234.886 315.783 229.565 318.343 223.663 320.101C217.805 321.86 211.536 322.739 204.859 322.739C193.572 322.739 183.534 320.238 174.746 315.236C165.958 310.234 159.043 303.122 154.003 293.899C148.963 284.676 146.442 273.734 146.442 261.073C146.442 248.411 148.963 237.469 154.003 228.246C159.043 219.024 165.958 211.912 174.746 206.909C183.534 201.907 193.572 199.406 204.859 199.406C211.536 199.406 217.805 200.286 223.663 202.044C229.565 203.803 234.886 206.382 239.625 209.782C244.363 213.143 248.327 217.246 251.515 222.092C254.703 226.898 256.9 232.389 258.106 238.563Z" fill="#56B6C2"/>
<path d="M322.257 322.974C313.297 322.974 305.435 321.039 298.671 317.17C291.951 313.302 286.695 307.889 282.904 300.933C279.156 293.977 277.282 285.849 277.282 276.548C277.282 267.169 279.156 258.982 282.904 251.987C286.695 244.992 291.951 239.56 298.671 235.691C305.435 231.822 313.297 229.888 322.257 229.888C331.218 229.888 339.059 231.822 345.779 235.691C352.543 239.56 357.799 244.992 361.546 251.987C365.338 258.982 367.233 267.169 367.233 276.548C367.233 285.849 365.338 293.977 361.546 300.933C357.799 307.889 352.543 313.302 345.779 317.17C339.059 321.039 331.218 322.974 322.257 322.974ZM322.257 310.546C329.064 310.546 334.665 308.964 339.059 305.798C343.453 302.633 346.705 298.471 348.816 293.313C350.927 288.154 351.983 282.566 351.983 276.548C351.983 270.53 350.927 264.922 348.816 259.724C346.705 254.527 343.453 250.326 339.059 247.122C334.665 243.917 329.064 242.315 322.257 242.315C315.451 242.315 309.85 243.917 305.456 247.122C301.062 250.326 297.81 254.527 295.699 259.724C293.588 264.922 292.532 270.53 292.532 276.548C292.532 282.566 293.588 288.154 295.699 293.313C297.81 298.471 301.062 302.633 305.456 305.798C309.85 308.964 315.451 310.546 322.257 310.546Z" fill="#282C34"/>
<path d="M430.577 356.738C423.21 356.738 416.877 355.878 411.579 354.158C406.28 352.478 401.864 350.251 398.331 347.476C394.842 344.74 392.063 341.81 389.995 338.683L402.144 330.946C403.523 332.587 405.267 334.463 407.378 336.573C409.489 338.722 412.376 340.579 416.037 342.142C419.742 343.744 424.589 344.545 430.577 344.545C438.59 344.545 445.203 342.787 450.415 339.269C455.628 335.752 458.234 330.242 458.234 322.739V304.45H456.942C455.822 306.091 454.228 308.124 452.16 310.546C450.135 312.93 447.206 315.06 443.372 316.936C439.581 318.773 434.454 319.691 427.992 319.691C419.979 319.691 412.785 317.971 406.409 314.533C400.076 311.094 395.057 306.091 391.352 299.526C387.691 292.961 385.86 284.989 385.86 275.61C385.86 266.387 387.648 258.357 391.223 251.518C394.799 244.64 399.775 239.325 406.15 235.574C412.526 231.783 419.893 229.888 428.251 229.888C434.713 229.888 439.839 230.865 443.63 232.819C447.464 234.734 450.394 236.922 452.418 239.384C454.486 241.807 456.08 243.8 457.2 245.363H458.751V231.06H473.485V323.677C473.485 331.415 471.546 337.706 467.669 342.552C463.835 347.437 458.665 351.013 452.16 353.279C445.698 355.585 438.504 356.738 430.577 356.738ZM430.06 307.264C436.177 307.264 441.347 305.994 445.569 303.454C449.791 300.914 453 297.26 455.197 292.492C457.394 287.724 458.493 282.019 458.493 275.376C458.493 268.888 457.416 263.163 455.262 258.2C453.108 253.237 449.92 249.349 445.698 246.535C441.476 243.722 436.263 242.315 430.06 242.315C423.598 242.315 418.213 243.8 413.905 246.77C409.64 249.74 406.43 253.726 404.276 258.728C402.166 263.73 401.11 269.279 401.11 275.376C401.11 281.628 402.187 287.158 404.341 291.965C406.538 296.732 409.769 300.484 414.034 303.219C418.342 305.916 423.684 307.264 430.06 307.264Z" fill="#1D2025"/>
<path d="M516.651 266.935V321.098H501.4V231.06H516.134V245.129H517.426C519.753 240.556 523.285 236.883 528.024 234.108C532.763 231.295 538.88 229.888 546.376 229.888C553.096 229.888 558.977 231.138 564.017 233.639C569.058 236.101 572.978 239.853 575.778 244.894C578.578 249.896 579.978 256.227 579.978 263.886V321.098H564.728V264.824C564.728 257.751 562.703 252.241 558.654 248.294C554.604 244.308 549.047 242.315 541.982 242.315C537.114 242.315 532.763 243.272 528.929 245.187C525.138 247.102 522.143 249.896 519.946 253.57C517.749 257.243 516.651 261.698 516.651 266.935Z" fill="#CCCCCC"/>
<path d="M607.846 321.098V231.06H623.096V321.098H607.846ZM615.6 216.054C612.628 216.054 610.064 215.136 607.91 213.299C605.8 211.462 604.744 209.254 604.744 206.675C604.744 204.096 605.8 201.888 607.91 200.051C610.064 198.214 612.628 197.296 615.6 197.296C618.573 197.296 621.115 198.214 623.225 200.051C625.379 201.888 626.456 204.096 626.456 206.675C626.456 209.254 625.379 211.462 623.225 213.299C621.115 215.136 618.573 216.054 615.6 216.054Z" fill="#528BFF"/>
<path d="M732.191 231.06L695.487 321.098H679.978L643.274 231.06H659.817L687.215 302.809H688.249L715.648 231.06H732.191Z" fill="#ABB2BF"/>
<path d="M778.507 323.208C772.218 323.208 766.51 322.133 761.383 319.984C756.257 317.796 752.186 314.65 749.17 310.546C746.154 306.404 744.647 301.402 744.647 295.54C744.647 290.382 745.767 286.2 748.007 282.996C750.247 279.752 753.241 277.212 756.989 275.376C760.737 273.539 764.873 272.171 769.396 271.272C773.963 270.334 778.551 269.592 783.16 269.045C789.191 268.341 794.081 267.814 797.829 267.462C801.62 267.071 804.377 266.426 806.1 265.528C807.866 264.629 808.75 263.066 808.75 260.838V260.369C808.75 254.586 807.005 250.092 803.515 246.887C800.069 243.683 794.835 242.08 787.813 242.08C780.532 242.08 774.824 243.526 770.688 246.418C766.553 249.31 763.645 252.397 761.965 255.68L747.49 250.99C750.075 245.519 753.521 241.26 757.829 238.212C762.18 235.124 766.919 232.975 772.045 231.764C777.215 230.513 782.299 229.888 787.296 229.888C790.484 229.888 794.145 230.239 798.281 230.943C802.46 231.607 806.488 232.995 810.365 235.105C814.285 237.215 817.538 240.4 820.123 244.66C822.708 248.919 824 254.625 824 261.776V321.098H808.75V308.905H807.974C806.94 310.859 805.217 312.95 802.805 315.177C800.392 317.405 797.183 319.3 793.176 320.863C789.17 322.426 784.28 323.208 778.507 323.208ZM780.834 310.781C786.865 310.781 791.948 309.706 796.084 307.557C800.263 305.408 803.408 302.633 805.519 299.233C807.673 295.833 808.75 292.258 808.75 288.506V275.844C808.103 276.548 806.682 277.193 804.485 277.779C802.331 278.326 799.832 278.814 796.989 279.244C794.189 279.635 791.453 279.987 788.782 280.299C786.154 280.573 784.022 280.808 782.385 281.003C778.421 281.472 774.716 282.234 771.27 283.289C767.867 284.305 765.11 285.849 762.999 287.92C760.931 289.952 759.897 292.727 759.897 296.244C759.897 301.05 761.857 304.685 765.777 307.147C769.741 309.569 774.759 310.781 780.834 310.781Z" fill="#252931"/>
<path d="M275.299 178.767C251.369 264.626 191.19 324.876 140.885 313.339C90.5806 301.802 69.199 222.847 93.1283 136.989C117.058 51.1297 177.236 -9.12018 227.541 2.41666C277.846 13.9535 299.228 92.9083 275.299 178.767Z" stroke="#554747" stroke-width="2" mask="url(#path-1-outside-1_1_39)"/>
<path d="M196.54 186.065C230.561 269.074 218.715 349.663 170.08 366.066C121.444 382.468 54.438 328.473 20.4165 245.464C-13.6049 162.455 -1.75811 81.866 46.8771 65.4635C95.5122 49.0611 162.519 103.056 196.54 186.065Z" stroke="#554747" stroke-width="2" mask="url(#path-1-outside-1_1_39)"/>
<path d="M258.106 238.563H242.08C241.132 234.382 239.474 230.708 237.104 227.543C234.778 224.378 231.935 221.72 228.575 219.571C225.257 217.383 221.574 215.741 217.524 214.647C213.475 213.553 209.253 213.006 204.859 213.006C196.846 213.006 189.587 214.842 183.082 218.516C176.62 222.189 171.472 227.602 167.638 234.753C163.847 241.905 161.951 250.678 161.951 261.073C161.951 271.468 163.847 280.241 167.638 287.392C171.472 294.544 176.62 299.956 183.082 303.63C189.587 307.303 196.846 309.14 204.859 309.14C209.253 309.14 213.475 308.593 217.524 307.498C221.574 306.404 225.257 304.782 228.575 302.633C231.935 300.445 234.778 297.768 237.104 294.602C239.474 291.398 241.132 287.724 242.08 283.582H258.106C256.9 289.717 254.703 295.208 251.515 300.054C248.327 304.9 244.363 309.022 239.625 312.422C234.886 315.783 229.565 318.343 223.663 320.101C217.805 321.86 211.536 322.739 204.859 322.739C193.572 322.739 183.534 320.238 174.746 315.236C165.958 310.234 159.043 303.122 154.003 293.899C148.963 284.676 146.442 273.734 146.442 261.073C146.442 248.411 148.963 237.469 154.003 228.246C159.043 219.024 165.958 211.912 174.746 206.909C183.534 201.907 193.572 199.406 204.859 199.406C211.536 199.406 217.805 200.286 223.663 202.044C229.565 203.803 234.886 206.382 239.625 209.782C244.363 213.143 248.327 217.246 251.515 222.092C254.703 226.898 256.9 232.389 258.106 238.563Z" stroke="#554747" stroke-width="2" mask="url(#path-1-outside-1_1_39)"/>
<path d="M322.257 322.974C313.297 322.974 305.435 321.039 298.671 317.17C291.951 313.302 286.695 307.889 282.904 300.933C279.156 293.977 277.282 285.849 277.282 276.548C277.282 267.169 279.156 258.982 282.904 251.987C286.695 244.992 291.951 239.56 298.671 235.691C305.435 231.822 313.297 229.888 322.257 229.888C331.218 229.888 339.059 231.822 345.779 235.691C352.543 239.56 357.799 244.992 361.546 251.987C365.338 258.982 367.233 267.169 367.233 276.548C367.233 285.849 365.338 293.977 361.546 300.933C357.799 307.889 352.543 313.302 345.779 317.17C339.059 321.039 331.218 322.974 322.257 322.974ZM322.257 310.546C329.064 310.546 334.665 308.964 339.059 305.798C343.453 302.633 346.705 298.471 348.816 293.313C350.927 288.154 351.983 282.566 351.983 276.548C351.983 270.53 350.927 264.922 348.816 259.724C346.705 254.527 343.453 250.326 339.059 247.122C334.665 243.917 329.064 242.315 322.257 242.315C315.451 242.315 309.85 243.917 305.456 247.122C301.062 250.326 297.81 254.527 295.699 259.724C293.588 264.922 292.532 270.53 292.532 276.548C292.532 282.566 293.588 288.154 295.699 293.313C297.81 298.471 301.062 302.633 305.456 305.798C309.85 308.964 315.451 310.546 322.257 310.546Z" stroke="#554747" stroke-width="2" mask="url(#path-1-outside-1_1_39)"/>
<path d="M430.577 356.738C423.21 356.738 416.877 355.878 411.579 354.158C406.28 352.478 401.864 350.251 398.331 347.476C394.842 344.74 392.063 341.81 389.995 338.683L402.144 330.946C403.523 332.587 405.267 334.463 407.378 336.573C409.489 338.722 412.376 340.579 416.037 342.142C419.742 343.744 424.589 344.545 430.577 344.545C438.59 344.545 445.203 342.787 450.415 339.269C455.628 335.752 458.234 330.242 458.234 322.739V304.45H456.942C455.822 306.091 454.228 308.124 452.16 310.546C450.135 312.93 447.206 315.06 443.372 316.936C439.581 318.773 434.454 319.691 427.992 319.691C419.979 319.691 412.785 317.971 406.409 314.533C400.076 311.094 395.057 306.091 391.352 299.526C387.691 292.961 385.86 284.989 385.86 275.61C385.86 266.387 387.648 258.357 391.223 251.518C394.799 244.64 399.775 239.325 406.15 235.574C412.526 231.783 419.893 229.888 428.251 229.888C434.713 229.888 439.839 230.865 443.63 232.819C447.464 234.734 450.394 236.922 452.418 239.384C454.486 241.807 456.08 243.8 457.2 245.363H458.751V231.06H473.485V323.677C473.485 331.415 471.546 337.706 467.669 342.552C463.835 347.437 458.665 351.013 452.16 353.279C445.698 355.585 438.504 356.738 430.577 356.738ZM430.06 307.264C436.177 307.264 441.347 305.994 445.569 303.454C449.791 300.914 453 297.26 455.197 292.492C457.394 287.724 458.493 282.019 458.493 275.376C458.493 268.888 457.416 263.163 455.262 258.2C453.108 253.237 449.92 249.349 445.698 246.535C441.476 243.722 436.263 242.315 430.06 242.315C423.598 242.315 418.213 243.8 413.905 246.77C409.64 249.74 406.43 253.726 404.276 258.728C402.166 263.73 401.11 269.279 401.11 275.376C401.11 281.628 402.187 287.158 404.341 291.965C406.538 296.732 409.769 300.484 414.034 303.219C418.342 305.916 423.684 307.264 430.06 307.264Z" stroke="#554747" stroke-width="2" mask="url(#path-1-outside-1_1_39)"/>
<path d="M516.651 266.935V321.098H501.4V231.06H516.134V245.129H517.426C519.753 240.556 523.285 236.883 528.024 234.108C532.763 231.295 538.88 229.888 546.376 229.888C553.096 229.888 558.977 231.138 564.017 233.639C569.058 236.101 572.978 239.853 575.778 244.894C578.578 249.896 579.978 256.227 579.978 263.886V321.098H564.728V264.824C564.728 257.751 562.703 252.241 558.654 248.294C554.604 244.308 549.047 242.315 541.982 242.315C537.114 242.315 532.763 243.272 528.929 245.187C525.138 247.102 522.143 249.896 519.946 253.57C517.749 257.243 516.651 261.698 516.651 266.935Z" stroke="#554747" stroke-width="2" mask="url(#path-1-outside-1_1_39)"/>
<path d="M607.846 321.098V231.06H623.096V321.098H607.846ZM615.6 216.054C612.628 216.054 610.064 215.136 607.91 213.299C605.8 211.462 604.744 209.254 604.744 206.675C604.744 204.096 605.8 201.888 607.91 200.051C610.064 198.214 612.628 197.296 615.6 197.296C618.573 197.296 621.115 198.214 623.225 200.051C625.379 201.888 626.456 204.096 626.456 206.675C626.456 209.254 625.379 211.462 623.225 213.299C621.115 215.136 618.573 216.054 615.6 216.054Z" stroke="#554747" stroke-width="2" mask="url(#path-1-outside-1_1_39)"/>
<path d="M732.191 231.06L695.487 321.098H679.978L643.274 231.06H659.817L687.215 302.809H688.249L715.648 231.06H732.191Z" stroke="#554747" stroke-width="2" mask="url(#path-1-outside-1_1_39)"/>
<path d="M778.507 323.208C772.218 323.208 766.51 322.133 761.383 319.984C756.257 317.796 752.186 314.65 749.17 310.546C746.154 306.404 744.647 301.402 744.647 295.54C744.647 290.382 745.767 286.2 748.007 282.996C750.247 279.752 753.241 277.212 756.989 275.376C760.737 273.539 764.873 272.171 769.396 271.272C773.963 270.334 778.551 269.592 783.16 269.045C789.191 268.341 794.081 267.814 797.829 267.462C801.62 267.071 804.377 266.426 806.1 265.528C807.866 264.629 808.75 263.066 808.75 260.838V260.369C808.75 254.586 807.005 250.092 803.515 246.887C800.069 243.683 794.835 242.08 787.813 242.08C780.532 242.08 774.824 243.526 770.688 246.418C766.553 249.31 763.645 252.397 761.965 255.68L747.49 250.99C750.075 245.519 753.521 241.26 757.829 238.212C762.18 235.124 766.919 232.975 772.045 231.764C777.215 230.513 782.299 229.888 787.296 229.888C790.484 229.888 794.145 230.239 798.281 230.943C802.46 231.607 806.488 232.995 810.365 235.105C814.285 237.215 817.538 240.4 820.123 244.66C822.708 248.919 824 254.625 824 261.776V321.098H808.75V308.905H807.974C806.94 310.859 805.217 312.95 802.805 315.177C800.392 317.405 797.183 319.3 793.176 320.863C789.17 322.426 784.28 323.208 778.507 323.208ZM780.834 310.781C786.865 310.781 791.948 309.706 796.084 307.557C800.263 305.408 803.408 302.633 805.519 299.233C807.673 295.833 808.75 292.258 808.75 288.506V275.844C808.103 276.548 806.682 277.193 804.485 277.779C802.331 278.326 799.832 278.814 796.989 279.244C794.189 279.635 791.453 279.987 788.782 280.299C786.154 280.573 784.022 280.808 782.385 281.003C778.421 281.472 774.716 282.234 771.27 283.289C767.867 284.305 765.11 285.849 762.999 287.92C760.931 289.952 759.897 292.727 759.897 296.244C759.897 301.05 761.857 304.685 765.777 307.147C769.741 309.569 774.759 310.781 780.834 310.781Z" stroke="#554747" stroke-width="2" mask="url(#path-1-outside-1_1_39)"/>
</svg>
