<svg width="974" height="417" viewBox="0 0 974 417" fill="none" xmlns="http://www.w3.org/2000/svg">
<rect width="974" height="417" rx="26" fill="#54565E"/>
<mask id="path-2-outside-1_1_39" maskUnits="userSpaceOnUse" x="63" y="24" width="825" height="372" fill="black">
<rect fill="white" x="63" y="24" width="825" height="372"/>
<path d="M338.298 203.766C314.369 289.625 254.19 349.875 203.885 338.338C153.581 326.801 132.199 247.846 156.128 161.987C180.058 76.1286 240.236 15.8787 290.541 27.4155C340.846 38.9523 362.228 117.907 338.298 203.766Z"/>
<path d="M259.54 211.064C293.561 294.073 281.715 374.662 233.079 391.065C184.444 407.467 117.438 353.472 83.4165 270.463C49.3951 187.454 61.2419 106.865 109.877 90.4624C158.512 74.0599 225.519 128.055 259.54 211.064Z"/>
<path d="M321.106 263.562H305.08C304.132 259.381 302.474 255.707 300.104 252.542C297.778 249.377 294.935 246.719 291.574 244.57C288.257 242.381 284.574 240.74 280.524 239.646C276.475 238.552 272.253 238.005 267.859 238.005C259.846 238.005 252.587 239.841 246.082 243.515C239.62 247.188 234.472 252.601 230.638 259.752C226.847 266.903 224.951 275.677 224.951 286.072C224.951 296.466 226.847 305.24 230.638 312.391C234.472 319.543 239.62 324.955 246.082 328.628C252.587 332.302 259.846 334.138 267.859 334.138C272.253 334.138 276.475 333.591 280.524 332.497C284.574 331.403 288.257 329.781 291.574 327.632C294.935 325.443 297.778 322.767 300.104 319.601C302.474 316.397 304.132 312.723 305.08 308.581H321.106C319.9 314.716 317.703 320.207 314.515 325.053C311.327 329.898 307.363 334.021 302.625 337.421C297.886 340.782 292.565 343.342 286.663 345.1C280.804 346.859 274.536 347.738 267.859 347.738C256.572 347.738 246.534 345.237 237.746 340.235C228.958 335.233 222.043 328.12 217.003 318.898C211.963 309.675 209.442 298.733 209.442 286.072C209.442 273.41 211.963 262.468 217.003 253.245C222.043 244.023 228.958 236.91 237.746 231.908C246.534 226.906 256.572 224.405 267.859 224.405C274.536 224.405 280.804 225.284 286.663 227.043C292.565 228.802 297.886 231.381 302.625 234.781C307.363 238.141 311.327 242.245 314.515 247.09C317.703 251.897 319.9 257.388 321.106 263.562Z"/>
<path d="M385.257 347.972C376.297 347.972 368.435 346.038 361.671 342.169C354.951 338.3 349.695 332.888 345.904 325.932C342.156 318.976 340.282 310.848 340.282 301.547C340.282 292.168 342.156 283.981 345.904 276.986C349.695 269.991 354.951 264.559 361.671 260.69C368.435 256.821 376.297 254.887 385.257 254.887C394.218 254.887 402.059 256.821 408.779 260.69C415.543 264.559 420.798 269.991 424.546 276.986C428.337 283.981 430.233 292.168 430.233 301.547C430.233 310.848 428.337 318.976 424.546 325.932C420.798 332.888 415.543 338.3 408.779 342.169C402.059 346.038 394.218 347.972 385.257 347.972ZM385.257 335.545C392.064 335.545 397.664 333.963 402.059 330.797C406.453 327.632 409.705 323.47 411.816 318.312C413.927 313.153 414.983 307.565 414.983 301.547C414.983 295.529 413.927 289.921 411.816 284.723C409.705 279.526 406.453 275.325 402.059 272.12C397.664 268.916 392.064 267.314 385.257 267.314C378.451 267.314 372.85 268.916 368.456 272.12C364.062 275.325 360.809 279.526 358.699 284.723C356.588 289.921 355.532 295.529 355.532 301.547C355.532 307.565 356.588 313.153 358.699 318.312C360.809 323.47 364.062 327.632 368.456 330.797C372.85 333.963 378.451 335.545 385.257 335.545Z"/>
<path d="M493.577 381.736C486.21 381.736 479.877 380.877 474.579 379.157C469.28 377.477 464.864 375.249 461.331 372.475C457.842 369.739 455.063 366.808 452.995 363.682L465.144 355.944C466.523 357.586 468.267 359.462 470.378 361.572C472.489 363.721 475.376 365.577 479.037 367.141C482.742 368.743 487.589 369.544 493.577 369.544C501.59 369.544 508.202 367.785 513.415 364.268C518.628 360.751 521.234 355.241 521.234 347.738V329.449H519.942C518.822 331.09 517.228 333.122 515.16 335.545C513.135 337.929 510.206 340.059 506.372 341.935C502.581 343.771 497.454 344.69 490.992 344.69C482.979 344.69 475.785 342.97 469.409 339.531C463.076 336.092 458.057 331.09 454.352 324.525C450.691 317.96 448.86 309.988 448.86 300.609C448.86 291.386 450.648 283.356 454.223 276.517C457.799 269.639 462.775 264.324 469.15 260.573C475.526 256.782 482.893 254.887 491.25 254.887C497.713 254.887 502.839 255.864 506.63 257.818C510.464 259.732 513.394 261.921 515.418 264.383C517.486 266.806 519.08 268.799 520.2 270.362H521.751V256.059H536.485V348.676C536.485 356.413 534.546 362.705 530.669 367.551C526.835 372.436 521.665 376.011 515.16 378.278C508.698 380.584 501.504 381.736 493.577 381.736ZM493.06 332.263C499.177 332.263 504.347 330.993 508.569 328.453C512.79 325.912 516 322.259 518.197 317.491C520.394 312.723 521.493 307.018 521.493 300.374C521.493 293.887 520.416 288.162 518.262 283.199C516.108 278.236 512.92 274.348 508.698 271.534C504.476 268.721 499.263 267.314 493.06 267.314C486.598 267.314 481.213 268.799 476.905 271.769C472.64 274.739 469.43 278.725 467.276 283.727C465.166 288.729 464.11 294.278 464.11 300.374C464.11 306.627 465.187 312.157 467.341 316.963C469.538 321.731 472.769 325.483 477.034 328.218C481.342 330.914 486.684 332.263 493.06 332.263Z"/>
<path d="M579.651 291.933V346.097H564.4V256.059H579.134V270.127H580.426C582.752 265.555 586.285 261.882 591.024 259.107C595.763 256.293 601.88 254.887 609.376 254.887C616.096 254.887 621.977 256.137 627.017 258.638C632.058 261.1 635.978 264.852 638.778 269.893C641.578 274.895 642.978 281.226 642.978 288.885V346.097H627.728V289.823C627.728 282.75 625.703 277.24 621.654 273.293C617.604 269.307 612.047 267.314 604.982 267.314C600.114 267.314 595.763 268.271 591.929 270.186C588.138 272.101 585.143 274.895 582.946 278.568C580.749 282.242 579.651 286.697 579.651 291.933Z"/>
<path d="M670.846 346.097V256.059H686.096V346.097H670.846ZM678.6 241.053C675.628 241.053 673.064 240.134 670.91 238.298C668.8 236.461 667.744 234.253 667.744 231.674C667.744 229.095 668.8 226.887 670.91 225.05C673.064 223.213 675.628 222.295 678.6 222.295C681.573 222.295 684.114 223.213 686.225 225.05C688.379 226.887 689.456 229.095 689.456 231.674C689.456 234.253 688.379 236.461 686.225 238.298C684.114 240.134 681.573 241.053 678.6 241.053Z"/>
<path d="M795.191 256.059L758.487 346.097H742.978L706.274 256.059H722.816L750.215 327.808H751.249L778.648 256.059H795.191Z"/>
<path d="M841.507 348.207C835.218 348.207 829.51 347.132 824.383 344.983C819.257 342.794 815.186 339.649 812.17 335.545C809.154 331.403 807.647 326.401 807.647 320.539C807.647 315.381 808.767 311.199 811.007 307.995C813.247 304.751 816.241 302.211 819.989 300.374C823.737 298.538 827.873 297.17 832.396 296.271C836.962 295.333 841.55 294.591 846.16 294.044C852.191 293.34 857.081 292.813 860.829 292.461C864.62 292.07 867.377 291.425 869.1 290.527C870.866 289.628 871.75 288.065 871.75 285.837V285.368C871.75 279.584 870.005 275.09 866.515 271.886C863.069 268.681 857.835 267.079 850.813 267.079C843.532 267.079 837.824 268.525 833.688 271.417C829.553 274.309 826.645 277.396 824.965 280.679L810.49 275.989C813.075 270.518 816.521 266.259 820.829 263.21C825.18 260.123 829.919 257.974 835.045 256.762C840.215 255.512 845.298 254.887 850.296 254.887C853.484 254.887 857.145 255.238 861.281 255.942C865.46 256.606 869.488 257.993 873.365 260.104C877.285 262.214 880.538 265.399 883.123 269.658C885.708 273.918 887 279.624 887 286.775V346.097H871.75V333.904H870.974C869.94 335.858 868.217 337.949 865.805 340.176C863.392 342.404 860.183 344.299 856.176 345.862C852.17 347.425 847.28 348.207 841.507 348.207ZM843.834 335.78C849.865 335.78 854.948 334.705 859.084 332.556C863.263 330.406 866.408 327.632 868.519 324.232C870.673 320.832 871.75 317.256 871.75 313.505V300.843C871.103 301.547 869.682 302.192 867.485 302.778C865.331 303.325 862.832 303.813 859.989 304.243C857.188 304.634 854.453 304.986 851.782 305.298C849.154 305.572 847.022 305.806 845.385 306.002C841.421 306.471 837.716 307.233 834.27 308.288C830.867 309.304 828.11 310.848 825.999 312.919C823.931 314.951 822.897 317.725 822.897 321.242C822.897 326.049 824.857 329.683 828.777 332.145C832.741 334.568 837.759 335.78 843.834 335.78Z"/>
</mask>
<path d="M338.298 203.766C314.369 289.625 254.19 349.875 203.885 338.338C153.581 326.801 132.199 247.846 156.128 161.987C180.058 76.1286 240.236 15.8787 290.541 27.4155C340.846 38.9523 362.228 117.907 338.298 203.766Z" fill="#56B6C2"/>
<path d="M259.54 211.064C293.561 294.073 281.715 374.662 233.079 391.065C184.444 407.467 117.438 353.472 83.4165 270.463C49.3951 187.454 61.2419 106.865 109.877 90.4624C158.512 74.0599 225.519 128.055 259.54 211.064Z" fill="#252931"/>
<path d="M321.106 263.562H305.08C304.132 259.381 302.474 255.707 300.104 252.542C297.778 249.377 294.935 246.719 291.574 244.57C288.257 242.381 284.574 240.74 280.524 239.646C276.475 238.552 272.253 238.005 267.859 238.005C259.846 238.005 252.587 239.841 246.082 243.515C239.62 247.188 234.472 252.601 230.638 259.752C226.847 266.903 224.951 275.677 224.951 286.072C224.951 296.466 226.847 305.24 230.638 312.391C234.472 319.543 239.62 324.955 246.082 328.628C252.587 332.302 259.846 334.138 267.859 334.138C272.253 334.138 276.475 333.591 280.524 332.497C284.574 331.403 288.257 329.781 291.574 327.632C294.935 325.443 297.778 322.767 300.104 319.601C302.474 316.397 304.132 312.723 305.08 308.581H321.106C319.9 314.716 317.703 320.207 314.515 325.053C311.327 329.898 307.363 334.021 302.625 337.421C297.886 340.782 292.565 343.342 286.663 345.1C280.804 346.859 274.536 347.738 267.859 347.738C256.572 347.738 246.534 345.237 237.746 340.235C228.958 335.233 222.043 328.12 217.003 318.898C211.963 309.675 209.442 298.733 209.442 286.072C209.442 273.41 211.963 262.468 217.003 253.245C222.043 244.023 228.958 236.91 237.746 231.908C246.534 226.906 256.572 224.405 267.859 224.405C274.536 224.405 280.804 225.284 286.663 227.043C292.565 228.802 297.886 231.381 302.625 234.781C307.363 238.141 311.327 242.245 314.515 247.09C317.703 251.897 319.9 257.388 321.106 263.562Z" fill="#56B6C2"/>
<path d="M385.257 347.972C376.297 347.972 368.435 346.038 361.671 342.169C354.951 338.3 349.695 332.888 345.904 325.932C342.156 318.976 340.282 310.848 340.282 301.547C340.282 292.168 342.156 283.981 345.904 276.986C349.695 269.991 354.951 264.559 361.671 260.69C368.435 256.821 376.297 254.887 385.257 254.887C394.218 254.887 402.059 256.821 408.779 260.69C415.543 264.559 420.798 269.991 424.546 276.986C428.337 283.981 430.233 292.168 430.233 301.547C430.233 310.848 428.337 318.976 424.546 325.932C420.798 332.888 415.543 338.3 408.779 342.169C402.059 346.038 394.218 347.972 385.257 347.972ZM385.257 335.545C392.064 335.545 397.664 333.963 402.059 330.797C406.453 327.632 409.705 323.47 411.816 318.312C413.927 313.153 414.983 307.565 414.983 301.547C414.983 295.529 413.927 289.921 411.816 284.723C409.705 279.526 406.453 275.325 402.059 272.12C397.664 268.916 392.064 267.314 385.257 267.314C378.451 267.314 372.85 268.916 368.456 272.12C364.062 275.325 360.809 279.526 358.699 284.723C356.588 289.921 355.532 295.529 355.532 301.547C355.532 307.565 356.588 313.153 358.699 318.312C360.809 323.47 364.062 327.632 368.456 330.797C372.85 333.963 378.451 335.545 385.257 335.545Z" fill="#282C34"/>
<path d="M493.577 381.736C486.21 381.736 479.877 380.877 474.579 379.157C469.28 377.477 464.864 375.249 461.331 372.475C457.842 369.739 455.063 366.808 452.995 363.682L465.144 355.944C466.523 357.586 468.267 359.462 470.378 361.572C472.489 363.721 475.376 365.577 479.037 367.141C482.742 368.743 487.589 369.544 493.577 369.544C501.59 369.544 508.202 367.785 513.415 364.268C518.628 360.751 521.234 355.241 521.234 347.738V329.449H519.942C518.822 331.09 517.228 333.122 515.16 335.545C513.135 337.929 510.206 340.059 506.372 341.935C502.581 343.771 497.454 344.69 490.992 344.69C482.979 344.69 475.785 342.97 469.409 339.531C463.076 336.092 458.057 331.09 454.352 324.525C450.691 317.96 448.86 309.988 448.86 300.609C448.86 291.386 450.648 283.356 454.223 276.517C457.799 269.639 462.775 264.324 469.15 260.573C475.526 256.782 482.893 254.887 491.25 254.887C497.713 254.887 502.839 255.864 506.63 257.818C510.464 259.732 513.394 261.921 515.418 264.383C517.486 266.806 519.08 268.799 520.2 270.362H521.751V256.059H536.485V348.676C536.485 356.413 534.546 362.705 530.669 367.551C526.835 372.436 521.665 376.011 515.16 378.278C508.698 380.584 501.504 381.736 493.577 381.736ZM493.06 332.263C499.177 332.263 504.347 330.993 508.569 328.453C512.79 325.912 516 322.259 518.197 317.491C520.394 312.723 521.493 307.018 521.493 300.374C521.493 293.887 520.416 288.162 518.262 283.199C516.108 278.236 512.92 274.348 508.698 271.534C504.476 268.721 499.263 267.314 493.06 267.314C486.598 267.314 481.213 268.799 476.905 271.769C472.64 274.739 469.43 278.725 467.276 283.727C465.166 288.729 464.11 294.278 464.11 300.374C464.11 306.627 465.187 312.157 467.341 316.963C469.538 321.731 472.769 325.483 477.034 328.218C481.342 330.914 486.684 332.263 493.06 332.263Z" fill="#1D2025"/>
<path d="M579.651 291.933V346.097H564.4V256.059H579.134V270.127H580.426C582.752 265.555 586.285 261.882 591.024 259.107C595.763 256.293 601.88 254.887 609.376 254.887C616.096 254.887 621.977 256.137 627.017 258.638C632.058 261.1 635.978 264.852 638.778 269.893C641.578 274.895 642.978 281.226 642.978 288.885V346.097H627.728V289.823C627.728 282.75 625.703 277.24 621.654 273.293C617.604 269.307 612.047 267.314 604.982 267.314C600.114 267.314 595.763 268.271 591.929 270.186C588.138 272.101 585.143 274.895 582.946 278.568C580.749 282.242 579.651 286.697 579.651 291.933Z" fill="#CCCCCC"/>
<path d="M670.846 346.097V256.059H686.096V346.097H670.846ZM678.6 241.053C675.628 241.053 673.064 240.134 670.91 238.298C668.8 236.461 667.744 234.253 667.744 231.674C667.744 229.095 668.8 226.887 670.91 225.05C673.064 223.213 675.628 222.295 678.6 222.295C681.573 222.295 684.114 223.213 686.225 225.05C688.379 226.887 689.456 229.095 689.456 231.674C689.456 234.253 688.379 236.461 686.225 238.298C684.114 240.134 681.573 241.053 678.6 241.053Z" fill="#528BFF"/>
<path d="M795.191 256.059L758.487 346.097H742.978L706.274 256.059H722.816L750.215 327.808H751.249L778.648 256.059H795.191Z" fill="#ABB2BF"/>
<path d="M841.507 348.207C835.218 348.207 829.51 347.132 824.383 344.983C819.257 342.794 815.186 339.649 812.17 335.545C809.154 331.403 807.647 326.401 807.647 320.539C807.647 315.381 808.767 311.199 811.007 307.995C813.247 304.751 816.241 302.211 819.989 300.374C823.737 298.538 827.873 297.17 832.396 296.271C836.962 295.333 841.55 294.591 846.16 294.044C852.191 293.34 857.081 292.813 860.829 292.461C864.62 292.07 867.377 291.425 869.1 290.527C870.866 289.628 871.75 288.065 871.75 285.837V285.368C871.75 279.584 870.005 275.09 866.515 271.886C863.069 268.681 857.835 267.079 850.813 267.079C843.532 267.079 837.824 268.525 833.688 271.417C829.553 274.309 826.645 277.396 824.965 280.679L810.49 275.989C813.075 270.518 816.521 266.259 820.829 263.21C825.18 260.123 829.919 257.974 835.045 256.762C840.215 255.512 845.298 254.887 850.296 254.887C853.484 254.887 857.145 255.238 861.281 255.942C865.46 256.606 869.488 257.993 873.365 260.104C877.285 262.214 880.538 265.399 883.123 269.658C885.708 273.918 887 279.624 887 286.775V346.097H871.75V333.904H870.974C869.94 335.858 868.217 337.949 865.805 340.176C863.392 342.404 860.183 344.299 856.176 345.862C852.17 347.425 847.28 348.207 841.507 348.207ZM843.834 335.78C849.865 335.78 854.948 334.705 859.084 332.556C863.263 330.406 866.408 327.632 868.519 324.232C870.673 320.832 871.75 317.256 871.75 313.505V300.843C871.103 301.547 869.682 302.192 867.485 302.778C865.331 303.325 862.832 303.813 859.989 304.243C857.188 304.634 854.453 304.986 851.782 305.298C849.154 305.572 847.022 305.806 845.385 306.002C841.421 306.471 837.716 307.233 834.27 308.288C830.867 309.304 828.11 310.848 825.999 312.919C823.931 314.951 822.897 317.725 822.897 321.242C822.897 326.049 824.857 329.683 828.777 332.145C832.741 334.568 837.759 335.78 843.834 335.78Z" fill="#252931"/>
<path d="M338.298 203.766C314.369 289.625 254.19 349.875 203.885 338.338C153.581 326.801 132.199 247.846 156.128 161.987C180.058 76.1286 240.236 15.8787 290.541 27.4155C340.846 38.9523 362.228 117.907 338.298 203.766Z" stroke="#554747" stroke-width="2" mask="url(#path-2-outside-1_1_39)"/>
<path d="M259.54 211.064C293.561 294.073 281.715 374.662 233.079 391.065C184.444 407.467 117.438 353.472 83.4165 270.463C49.3951 187.454 61.2419 106.865 109.877 90.4624C158.512 74.0599 225.519 128.055 259.54 211.064Z" stroke="#554747" stroke-width="2" mask="url(#path-2-outside-1_1_39)"/>
<path d="M321.106 263.562H305.08C304.132 259.381 302.474 255.707 300.104 252.542C297.778 249.377 294.935 246.719 291.574 244.57C288.257 242.381 284.574 240.74 280.524 239.646C276.475 238.552 272.253 238.005 267.859 238.005C259.846 238.005 252.587 239.841 246.082 243.515C239.62 247.188 234.472 252.601 230.638 259.752C226.847 266.903 224.951 275.677 224.951 286.072C224.951 296.466 226.847 305.24 230.638 312.391C234.472 319.543 239.62 324.955 246.082 328.628C252.587 332.302 259.846 334.138 267.859 334.138C272.253 334.138 276.475 333.591 280.524 332.497C284.574 331.403 288.257 329.781 291.574 327.632C294.935 325.443 297.778 322.767 300.104 319.601C302.474 316.397 304.132 312.723 305.08 308.581H321.106C319.9 314.716 317.703 320.207 314.515 325.053C311.327 329.898 307.363 334.021 302.625 337.421C297.886 340.782 292.565 343.342 286.663 345.1C280.804 346.859 274.536 347.738 267.859 347.738C256.572 347.738 246.534 345.237 237.746 340.235C228.958 335.233 222.043 328.12 217.003 318.898C211.963 309.675 209.442 298.733 209.442 286.072C209.442 273.41 211.963 262.468 217.003 253.245C222.043 244.023 228.958 236.91 237.746 231.908C246.534 226.906 256.572 224.405 267.859 224.405C274.536 224.405 280.804 225.284 286.663 227.043C292.565 228.802 297.886 231.381 302.625 234.781C307.363 238.141 311.327 242.245 314.515 247.09C317.703 251.897 319.9 257.388 321.106 263.562Z" stroke="#554747" stroke-width="2" mask="url(#path-2-outside-1_1_39)"/>
<path d="M385.257 347.972C376.297 347.972 368.435 346.038 361.671 342.169C354.951 338.3 349.695 332.888 345.904 325.932C342.156 318.976 340.282 310.848 340.282 301.547C340.282 292.168 342.156 283.981 345.904 276.986C349.695 269.991 354.951 264.559 361.671 260.69C368.435 256.821 376.297 254.887 385.257 254.887C394.218 254.887 402.059 256.821 408.779 260.69C415.543 264.559 420.798 269.991 424.546 276.986C428.337 283.981 430.233 292.168 430.233 301.547C430.233 310.848 428.337 318.976 424.546 325.932C420.798 332.888 415.543 338.3 408.779 342.169C402.059 346.038 394.218 347.972 385.257 347.972ZM385.257 335.545C392.064 335.545 397.664 333.963 402.059 330.797C406.453 327.632 409.705 323.47 411.816 318.312C413.927 313.153 414.983 307.565 414.983 301.547C414.983 295.529 413.927 289.921 411.816 284.723C409.705 279.526 406.453 275.325 402.059 272.12C397.664 268.916 392.064 267.314 385.257 267.314C378.451 267.314 372.85 268.916 368.456 272.12C364.062 275.325 360.809 279.526 358.699 284.723C356.588 289.921 355.532 295.529 355.532 301.547C355.532 307.565 356.588 313.153 358.699 318.312C360.809 323.47 364.062 327.632 368.456 330.797C372.85 333.963 378.451 335.545 385.257 335.545Z" stroke="#554747" stroke-width="2" mask="url(#path-2-outside-1_1_39)"/>
<path d="M493.577 381.736C486.21 381.736 479.877 380.877 474.579 379.157C469.28 377.477 464.864 375.249 461.331 372.475C457.842 369.739 455.063 366.808 452.995 363.682L465.144 355.944C466.523 357.586 468.267 359.462 470.378 361.572C472.489 363.721 475.376 365.577 479.037 367.141C482.742 368.743 487.589 369.544 493.577 369.544C501.59 369.544 508.202 367.785 513.415 364.268C518.628 360.751 521.234 355.241 521.234 347.738V329.449H519.942C518.822 331.09 517.228 333.122 515.16 335.545C513.135 337.929 510.206 340.059 506.372 341.935C502.581 343.771 497.454 344.69 490.992 344.69C482.979 344.69 475.785 342.97 469.409 339.531C463.076 336.092 458.057 331.09 454.352 324.525C450.691 317.96 448.86 309.988 448.86 300.609C448.86 291.386 450.648 283.356 454.223 276.517C457.799 269.639 462.775 264.324 469.15 260.573C475.526 256.782 482.893 254.887 491.25 254.887C497.713 254.887 502.839 255.864 506.63 257.818C510.464 259.732 513.394 261.921 515.418 264.383C517.486 266.806 519.08 268.799 520.2 270.362H521.751V256.059H536.485V348.676C536.485 356.413 534.546 362.705 530.669 367.551C526.835 372.436 521.665 376.011 515.16 378.278C508.698 380.584 501.504 381.736 493.577 381.736ZM493.06 332.263C499.177 332.263 504.347 330.993 508.569 328.453C512.79 325.912 516 322.259 518.197 317.491C520.394 312.723 521.493 307.018 521.493 300.374C521.493 293.887 520.416 288.162 518.262 283.199C516.108 278.236 512.92 274.348 508.698 271.534C504.476 268.721 499.263 267.314 493.06 267.314C486.598 267.314 481.213 268.799 476.905 271.769C472.64 274.739 469.43 278.725 467.276 283.727C465.166 288.729 464.11 294.278 464.11 300.374C464.11 306.627 465.187 312.157 467.341 316.963C469.538 321.731 472.769 325.483 477.034 328.218C481.342 330.914 486.684 332.263 493.06 332.263Z" stroke="#554747" stroke-width="2" mask="url(#path-2-outside-1_1_39)"/>
<path d="M579.651 291.933V346.097H564.4V256.059H579.134V270.127H580.426C582.752 265.555 586.285 261.882 591.024 259.107C595.763 256.293 601.88 254.887 609.376 254.887C616.096 254.887 621.977 256.137 627.017 258.638C632.058 261.1 635.978 264.852 638.778 269.893C641.578 274.895 642.978 281.226 642.978 288.885V346.097H627.728V289.823C627.728 282.75 625.703 277.24 621.654 273.293C617.604 269.307 612.047 267.314 604.982 267.314C600.114 267.314 595.763 268.271 591.929 270.186C588.138 272.101 585.143 274.895 582.946 278.568C580.749 282.242 579.651 286.697 579.651 291.933Z" stroke="#554747" stroke-width="2" mask="url(#path-2-outside-1_1_39)"/>
<path d="M670.846 346.097V256.059H686.096V346.097H670.846ZM678.6 241.053C675.628 241.053 673.064 240.134 670.91 238.298C668.8 236.461 667.744 234.253 667.744 231.674C667.744 229.095 668.8 226.887 670.91 225.05C673.064 223.213 675.628 222.295 678.6 222.295C681.573 222.295 684.114 223.213 686.225 225.05C688.379 226.887 689.456 229.095 689.456 231.674C689.456 234.253 688.379 236.461 686.225 238.298C684.114 240.134 681.573 241.053 678.6 241.053Z" stroke="#554747" stroke-width="2" mask="url(#path-2-outside-1_1_39)"/>
<path d="M795.191 256.059L758.487 346.097H742.978L706.274 256.059H722.816L750.215 327.808H751.249L778.648 256.059H795.191Z" stroke="#554747" stroke-width="2" mask="url(#path-2-outside-1_1_39)"/>
<path d="M841.507 348.207C835.218 348.207 829.51 347.132 824.383 344.983C819.257 342.794 815.186 339.649 812.17 335.545C809.154 331.403 807.647 326.401 807.647 320.539C807.647 315.381 808.767 311.199 811.007 307.995C813.247 304.751 816.241 302.211 819.989 300.374C823.737 298.538 827.873 297.17 832.396 296.271C836.962 295.333 841.55 294.591 846.16 294.044C852.191 293.34 857.081 292.813 860.829 292.461C864.62 292.07 867.377 291.425 869.1 290.527C870.866 289.628 871.75 288.065 871.75 285.837V285.368C871.75 279.584 870.005 275.09 866.515 271.886C863.069 268.681 857.835 267.079 850.813 267.079C843.532 267.079 837.824 268.525 833.688 271.417C829.553 274.309 826.645 277.396 824.965 280.679L810.49 275.989C813.075 270.518 816.521 266.259 820.829 263.21C825.18 260.123 829.919 257.974 835.045 256.762C840.215 255.512 845.298 254.887 850.296 254.887C853.484 254.887 857.145 255.238 861.281 255.942C865.46 256.606 869.488 257.993 873.365 260.104C877.285 262.214 880.538 265.399 883.123 269.658C885.708 273.918 887 279.624 887 286.775V346.097H871.75V333.904H870.974C869.94 335.858 868.217 337.949 865.805 340.176C863.392 342.404 860.183 344.299 856.176 345.862C852.17 347.425 847.28 348.207 841.507 348.207ZM843.834 335.78C849.865 335.78 854.948 334.705 859.084 332.556C863.263 330.406 866.408 327.632 868.519 324.232C870.673 320.832 871.75 317.256 871.75 313.505V300.843C871.103 301.547 869.682 302.192 867.485 302.778C865.331 303.325 862.832 303.813 859.989 304.243C857.188 304.634 854.453 304.986 851.782 305.298C849.154 305.572 847.022 305.806 845.385 306.002C841.421 306.471 837.716 307.233 834.27 308.288C830.867 309.304 828.11 310.848 825.999 312.919C823.931 314.951 822.897 317.725 822.897 321.242C822.897 326.049 824.857 329.683 828.777 332.145C832.741 334.568 837.759 335.78 843.834 335.78Z" stroke="#554747" stroke-width="2" mask="url(#path-2-outside-1_1_39)"/>
</svg>
