<svg width="287" height="370" viewBox="0 0 287 370" fill="none" xmlns="http://www.w3.org/2000/svg">
<path d="M275.299 178.767C251.369 264.626 191.19 324.876 140.885 313.339C90.5806 301.802 69.199 222.847 93.1283 136.989C117.058 51.1297 177.237 -9.12024 227.541 2.4166C277.846 13.9534 299.228 92.9083 275.299 178.767Z" fill="#56B6C2"/>
<path d="M196.54 186.065C230.562 269.074 218.715 349.663 170.08 366.066C121.444 382.468 54.438 328.473 20.4165 245.464C-13.6049 162.455 -1.75811 81.8659 46.8771 65.4635C95.5122 49.061 162.519 103.056 196.54 186.065Z" fill="#252931"/>
<path d="M150.09 32.8263C174.471 8.41604 202.26 -3.89478 227.653 1.92883C253.059 7.75535 271.073 30.5856 279.74 62.59C288.411 94.6062 287.764 135.903 275.78 178.901C263.796 221.9 242.731 258.507 218.337 282.93C217.661 283.607 216.981 284.273 216.3 284.931C216.065 290.515 215.565 295.92 214.801 301.115C209.999 333.783 194.808 358.253 170.239 366.539C145.688 374.819 116.598 365.307 89.4541 343.434C62.2953 321.549 36.9919 287.224 19.9541 245.653C2.91682 204.084 -2.64774 163.093 2.15629 130.413C6.9586 97.7455 22.1479 73.2755 46.7168 64.9894C67.7719 57.8885 92.1643 63.8745 115.805 79.5187C125.823 61.2454 137.514 45.4168 150.09 32.8263Z" stroke="#554747"/>
</svg>
